<svg width="80" height="86" viewBox="0 0 80 86" fill="none" xmlns="http://www.w3.org/2000/svg">
<path d="M30.336 1.45739C23.6291 6.47513 1.14033 23.4659 0.759447 23.8137C-0.267285 24.7742 -0.201044 26.3474 0.891929 27.3079C1.38873 27.7384 1.62058 27.8212 2.36579 27.8212C3.02819 27.8212 3.39252 27.7219 3.82308 27.4238C4.27021 27.1257 32.1576 6.14393 33.0353 5.4484C33.1346 5.3656 38.8976 9.60501 47.9063 16.4113C56.0043 22.5054 62.7608 27.5728 62.9264 27.6556C63.4232 27.9371 64.7646 27.8378 65.3277 27.5066C65.8907 27.1588 66.3875 26.2646 66.3875 25.6022C66.3875 24.9563 66.0066 24.1614 65.4601 23.6646C64.8309 23.1016 34.741 0.414099 34.2938 0.182257C34.1117 0.0828953 33.5818 9.34601e-05 33.1181 9.34601e-05C32.3397 9.34601e-05 32.1907 0.0828953 30.336 1.45739Z" fill="#515151"/>
<path d="M32.1576 11.1121C31.4455 11.4599 0.742888 34.7104 0.411684 35.1575C0.0639198 35.6047 0.0639198 35.704 0.0142392 55.7253C-0.0188812 75.4485 -0.0188812 75.8625 0.295763 76.5912C0.560726 77.1708 0.792569 77.4026 1.33906 77.651C2.03458 77.9656 2.61419 77.9822 25.931 77.9822H49.8108L52.8578 81.7579C54.9775 84.3744 56.0871 85.6165 56.4348 85.7655C56.7329 85.8814 57.296 85.9477 57.7928 85.898C58.4717 85.8317 58.7367 85.6993 59.1838 85.2521C59.8131 84.5897 77.102 63.2271 77.8969 62.101C79.321 60.0972 79.9834 57.9444 80 55.2947C80 54.3342 79.9172 53.175 79.8178 52.7279C78.9898 49.1343 76.688 46.1369 73.6243 44.6465C71.8358 43.7688 70.5772 43.4873 68.3416 43.4708L66.4041 43.4542L66.3544 39.5294C66.3047 35.8696 66.2882 35.5881 65.9569 35.141C65.6257 34.6773 62.9264 32.6238 43.7497 18.1833C34.1117 10.9134 34.1117 10.9134 33.3168 10.93C32.8697 10.93 32.3563 11.0128 32.1576 11.1121ZM47.9726 27.3908L61.5851 37.6581V41.467V45.2758L60.873 45.7229C60.0615 46.2529 58.9189 47.2962 58.0577 48.3229L57.445 49.0681L57.1635 48.6541C57.0144 48.4388 56.3852 47.7598 55.7559 47.1471C51.3343 42.8083 44.0809 42.1791 39.5103 45.7395C37.4568 47.3293 35.7511 50.012 35.1881 52.5292C34.8238 54.119 34.8403 56.603 35.2543 58.1762C35.834 60.4615 36.5957 61.6373 41.3154 67.4665C43.7332 70.4639 45.7369 72.981 45.7866 73.0473C45.8363 73.1135 36.6288 73.1798 25.3348 73.1798H4.78358V55.4107L4.80014 37.6581L18.9922 26.9602L33.1843 16.2623L33.7805 16.6929C34.1117 16.9248 40.4874 21.7438 47.9726 27.3908ZM48.4859 48.4223C52.0795 49.2668 54.7457 52.4464 55.0769 56.2387C55.2259 57.994 55.8387 58.8386 57.1635 59.0539C57.9253 59.1698 59.0845 58.6233 59.4654 57.9775C59.631 57.7125 59.8297 56.868 59.9125 56.0896C60.1609 53.8706 60.9226 52.2145 62.3303 50.7904C66.1722 46.8822 72.2664 47.4949 74.4855 51.9993C75.2141 53.4731 75.4459 54.8642 75.2141 56.2387C74.8332 58.4246 75.5122 57.5138 59.1838 77.6841L57.4781 79.8038L49.5458 69.9836C45.1905 64.6016 41.3485 59.8157 41.0173 59.3851C39.3282 57.166 39.2453 53.8209 40.802 51.4031C42.5077 48.77 45.3064 47.677 48.4859 48.4223Z" fill="#515151"/>
</svg>
