<svg width="375" height="156" viewBox="0 0 375 156" fill="none" xmlns="http://www.w3.org/2000/svg">
<g clip-path="url(#clip0)">
<rect x="130.368" y="-12" width="270.856" height="4" transform="rotate(20 130.368 -12)" fill="#BBEABA"/>
<rect x="114.368" y="-10" width="297.476" height="4" transform="rotate(20 114.368 -10)" fill="#BBEABA"/>
<rect x="100.368" y="-7" width="327.983" height="4" transform="rotate(20 100.368 -7)" fill="#BBEABA"/>
<rect x="93.3682" y="-2" width="302.301" height="4" transform="rotate(20 93.3682 -2)" fill="#BBEABA"/>
<rect x="-25" y="116.996" width="188.084" height="4" transform="rotate(-45 -25 116.996)" fill="#BBEABA"/>
<rect x="-8" y="111.996" width="188.084" height="4" transform="rotate(-45 -8 111.996)" fill="#BBEABA"/>
<rect x="-5.30859" y="121.304" width="192.764" height="4" transform="rotate(-45 -5.30859 121.304)" fill="#BBEABA"/>
<rect x="-15.1172" y="143.421" width="215.556" height="4" transform="rotate(-45 -15.1172 143.421)" fill="#BBEABA"/>
<rect x="230.874" y="147.133" width="250.351" height="4" rx="2" transform="rotate(-160 230.874 147.133)" fill="#BBEABA"/>
<rect x="218.751" y="150.657" width="254.074" height="4" rx="2" transform="rotate(-160 218.751 150.657)" fill="#BBEABA"/>
<rect x="245.47" y="144.622" width="266.544" height="4" rx="2" transform="rotate(-160 245.47 144.622)" fill="#BBEABA"/>
<rect x="259.302" y="141.561" width="280.533" height="4" rx="2" transform="rotate(-160 259.302 141.561)" fill="#BBEABA"/>
<rect x="390.824" y="8.82837" width="188.084" height="4" rx="2" transform="rotate(135 390.824 8.82837)" fill="#BBEABA"/>
<rect x="401.403" y="-12.1716" width="221.43" height="4" rx="2" transform="rotate(135 401.403 -12.1716)" fill="#BBEABA"/>
<rect x="389.791" y="-11.1716" width="224.807" height="4" rx="2" transform="rotate(135 389.791 -11.1716)" fill="#BBEABA"/>
<rect x="384.791" y="-16.1716" width="234.847" height="4" rx="2" transform="rotate(135 384.791 -16.1716)" fill="#BBEABA"/>
</g>
<defs>
<clipPath id="clip0">
<rect width="375" height="156" fill="white"/>
</clipPath>
</defs>
</svg>
