<svg width="375" height="750" viewBox="0 0 375 750" fill="none" xmlns="http://www.w3.org/2000/svg">
<path d="M0 374H375V186H0V374Z" fill="#F0FFEB"/>
<path d="M116.602 201.322C116.016 201.604 110.789 203.343 110.602 203.084C110.484 202.92 111.516 197.491 111.68 197.327C111.727 197.256 115.43 200.217 116.602 201.322ZM87.5859 320.162C87.5859 320.185 88.7344 322.371 89.2266 323.499C89.25 323.569 89.2969 323.757 89.3203 323.875C89.3438 323.969 89.3906 324.039 89.4609 324.086C89.5312 324.133 89.6016 324.11 89.6484 324.063L92.7188 321.172C92.7656 321.125 92.7891 321.055 92.8125 320.984C92.8125 320.914 92.8125 320.82 92.7656 320.749C92.7422 320.726 92.4375 320.162 92.2734 319.903C91.7109 319.034 90.75 317.06 90.75 317.036C90.7031 316.966 90.6563 316.919 90.5859 316.895C90.5156 316.895 90.4688 316.919 90.4219 316.966C90.4219 316.966 90 317.553 89.7891 317.812C89.4375 318.188 89.0859 318.564 88.7109 318.916C88.4297 319.198 88.3359 319.245 88.2188 319.292C88.1016 319.363 87.9609 319.41 87.6328 319.739C87.5391 319.856 87.5156 320.044 87.5859 320.162ZM367.266 192.979C367.266 193.144 367.383 193.261 367.547 193.261C367.57 193.261 367.617 193.261 367.641 193.238C368.016 193.191 370.992 193.214 372.844 193.238C372.914 193.238 372.984 193.214 373.055 193.144C373.102 193.097 373.148 193.026 373.148 192.932C373.148 192.885 373.148 191.781 373.125 191.546L373.031 188.35C373.031 188.279 372.984 188.209 372.937 188.138C372.891 188.091 372.82 188.068 372.75 188.068H372.727C371.016 188.232 369.281 188.279 367.57 188.209C367.5 188.209 367.406 188.232 367.359 188.279C367.313 188.326 367.266 188.42 367.266 188.491C367.289 189.924 367.289 191.593 367.266 192.979Z" fill="#FBFBD6"/>
<path d="M334.898 283.901C334.594 284.488 331.547 289.071 331.242 288.977C331.055 288.906 328.547 283.995 328.547 283.783C328.57 283.713 333.305 283.76 334.898 283.901ZM235.219 206.727C235.242 206.75 236.789 208.654 237.492 209.664C237.539 209.735 237.609 209.899 237.656 210.017C237.703 210.111 237.75 210.181 237.82 210.205C237.891 210.228 237.961 210.205 238.008 210.134L240.469 206.68C240.516 206.633 240.516 206.562 240.516 206.468C240.516 206.398 240.469 206.304 240.422 206.257C240.398 206.233 240 205.74 239.766 205.528C239.039 204.8 237.703 203.061 237.68 203.037C237.633 202.967 237.563 202.943 237.492 202.943C237.422 202.943 237.375 202.99 237.352 203.061C237.352 203.061 237.07 203.719 236.883 204.024C236.625 204.471 236.344 204.894 236.063 205.317C235.852 205.646 235.758 205.716 235.664 205.787C235.547 205.881 235.43 205.951 235.172 206.351C235.102 206.421 235.125 206.609 235.219 206.727ZM204.492 331.723C204.352 331.676 204.187 331.77 204.164 331.911C204.164 331.935 204.164 331.958 204.164 332.005C204.117 332.334 203.508 334.966 203.109 336.588C203.086 336.658 203.109 336.729 203.156 336.776C203.203 336.846 203.273 336.87 203.344 336.893C203.391 336.893 204.445 337.152 204.68 337.199L207.82 337.833C207.891 337.857 207.984 337.833 208.031 337.786C208.078 337.739 208.125 337.692 208.148 337.645V337.622C208.336 336.094 208.664 334.543 209.063 333.063C209.086 332.992 209.063 332.922 209.016 332.851C208.969 332.781 208.898 332.757 208.828 332.734C207.469 332.428 205.852 332.052 204.492 331.723ZM204.258 332.146C204.281 332.17 204.305 332.193 204.352 332.193C204.305 332.193 204.281 332.17 204.258 332.146Z" fill="#FFECE4"/>
<path d="M211.031 262.916C211.383 262.916 211.688 263.104 211.852 263.456C212.039 263.903 211.852 264.443 211.406 264.631C210.539 265.007 209.813 265.736 209.438 266.629C209.063 267.522 209.039 268.532 209.391 269.425C209.461 269.637 209.578 269.848 209.672 270.083C209.859 270.483 210.094 270.953 210.211 271.47C210.422 272.433 210.258 273.491 209.742 274.478C209.344 275.206 208.781 275.911 207.961 276.616C207.586 276.945 207.024 276.898 206.719 276.522C206.391 276.146 206.438 275.582 206.813 275.277C207.469 274.689 207.914 274.172 208.195 273.632C208.524 273.021 208.641 272.386 208.5 271.846C208.43 271.517 208.266 271.188 208.102 270.835C207.985 270.577 207.867 270.318 207.75 270.06C207.258 268.744 207.281 267.24 207.82 265.924C208.359 264.631 209.414 263.55 210.703 262.986C210.797 262.939 210.914 262.916 211.031 262.916ZM201.469 274.971C201.117 275.018 200.766 274.854 200.578 274.525C200.32 274.102 200.484 273.538 200.906 273.279C201.774 272.786 202.406 271.963 202.688 271.047C202.969 270.107 202.875 269.073 202.43 268.203C202.336 267.992 202.195 267.804 202.055 267.569C201.82 267.169 201.539 266.746 201.352 266.229C201.024 265.289 201.07 264.185 201.492 263.127C201.82 262.328 202.313 261.576 203.086 260.754C203.438 260.378 204 260.354 204.375 260.707C204.75 261.036 204.774 261.623 204.422 261.976C203.813 262.634 203.414 263.221 203.18 263.785C202.922 264.443 202.875 265.101 203.063 265.642C203.18 265.947 203.367 266.276 203.578 266.605C203.719 266.84 203.883 267.099 204.024 267.357C204.68 268.626 204.82 270.154 204.422 271.54C204 272.927 203.063 274.125 201.797 274.83C201.703 274.924 201.586 274.971 201.469 274.971ZM313.758 235.138C312.422 233.54 311.649 231.449 311.555 229.875C311.438 228.159 312.117 226.02 313.945 225.08C314.649 224.728 315.516 224.563 316.57 224.563C318.422 224.587 319.594 225.245 320.18 226.537C320.672 227.642 320.719 229.217 319.758 230.274C319.008 231.097 317.93 231.238 317.133 230.65C316.852 230.438 316.781 230.015 316.992 229.733C317.203 229.451 317.625 229.381 317.906 229.592C318.328 229.898 318.75 229.452 318.797 229.405C319.359 228.794 319.289 227.759 318.984 227.078C318.633 226.279 317.883 225.903 316.547 225.879C315.703 225.879 315.047 225.997 314.531 226.255C313.43 226.819 312.727 228.276 312.844 229.78C312.961 231.496 314.086 234.058 315.891 235.397C316.875 236.126 317.883 236.361 318.914 236.126C319.641 235.961 320.367 235.562 321.188 234.951C322.734 233.752 323.93 232.177 324.516 230.485C325.149 228.676 325.008 226.773 324.07 224.869C323.906 224.54 324.047 224.14 324.375 223.999C324.703 223.835 325.102 223.976 325.242 224.305C326.32 226.514 326.508 228.817 325.758 230.932C325.078 232.859 323.742 234.669 321.984 236.008C321.024 236.737 320.109 237.207 319.219 237.418C317.813 237.747 316.406 237.418 315.117 236.478C314.625 236.079 314.156 235.632 313.758 235.138Z" fill="#BBEABA" fill-opacity="0.6"/>
<path d="M137.414 336.165C136.495 336.165 135.75 336.912 135.75 337.833C135.75 338.755 136.495 339.502 137.414 339.502C138.333 339.502 139.078 338.755 139.078 337.833C139.078 336.912 138.333 336.165 137.414 336.165Z" fill="#BBEABA" fill-opacity="0.6"/>
<path d="M134.93 341.288C134.011 341.288 133.266 342.035 133.266 342.956C133.266 343.878 134.011 344.625 134.93 344.625C135.849 344.625 136.594 343.878 136.594 342.956C136.594 342.035 135.849 341.288 134.93 341.288Z" fill="#BBEABA" fill-opacity="0.6"/>
<path d="M131.883 337.34C130.964 337.34 130.219 338.087 130.219 339.008C130.219 339.93 130.964 340.677 131.883 340.677C132.802 340.677 133.547 339.93 133.547 339.008C133.547 338.087 132.802 337.34 131.883 337.34Z" fill="#BBEABA" fill-opacity="0.6"/>
<path d="M21.3985 304.158C22.5235 305.427 23.6719 306.696 24.8672 307.965C23.5547 309.281 22.2656 310.668 21.211 312.242C20.9297 312.642 21.0469 313.206 21.4453 313.464C21.8438 313.746 22.4063 313.629 22.6641 313.229C23.6484 311.772 24.7969 310.503 26.0625 309.258C27.1875 310.433 28.336 311.608 29.5078 312.759C29.8594 313.112 30.4219 313.112 30.75 312.759C31.1016 312.407 31.1016 311.843 30.75 311.514C29.6016 310.386 28.4766 309.211 27.3516 308.036C27.6094 307.777 27.8906 307.519 28.1719 307.284C29.1328 306.391 30.1406 305.451 31.0781 304.464C31.4063 304.111 31.4063 303.571 31.0781 303.218C30.7266 302.889 30.1641 302.889 29.836 303.242C28.9219 304.182 27.9375 305.098 27 305.991C26.7188 306.25 26.4609 306.508 26.1797 306.767C25.0313 305.521 23.8828 304.276 22.7578 303.03C22.7344 303.007 22.7344 303.007 22.711 302.983C22.3828 302.654 21.8438 302.631 21.4922 302.936C21.0938 303.218 21.0703 303.782 21.3985 304.158ZM298.219 315.579L298.312 316.19C298.664 318.799 298.828 321.642 298.852 324.885C298.852 326.178 298.852 327.588 298.805 329.233C298.805 329.397 298.805 329.585 298.805 329.773C298.805 330.948 298.805 332.405 297.891 332.946C297.375 333.251 296.695 333.181 295.898 332.734C294.562 332.006 292.805 330.69 291.797 329.233C290.508 327.4 290.086 325.261 290.625 323.193C291.375 320.303 294.141 315.908 297.656 315.65L298.219 315.579ZM297.164 331.888C297.211 331.888 297.234 331.888 297.258 331.865C297.281 331.841 297.422 331.747 297.516 331.23C297.586 330.784 297.586 330.243 297.586 329.75C297.586 329.562 297.586 329.35 297.586 329.186C297.633 327.564 297.633 326.178 297.633 324.885C297.609 321.948 297.469 319.363 297.164 316.966C294.586 317.6 292.383 321.219 291.773 323.499C291.328 325.191 291.68 326.977 292.758 328.504C293.672 329.797 295.312 330.995 296.484 331.63C296.812 331.818 297.047 331.888 297.164 331.888ZM253.992 359.712C254.016 359.712 254.039 359.712 254.086 359.736C254.648 359.9 255.023 359.947 255.656 359.9C255.82 359.9 255.961 360.018 255.984 360.182C255.984 360.347 255.867 360.488 255.703 360.511C254.977 360.558 254.555 360.511 253.922 360.323C253.758 360.276 253.664 360.112 253.711 359.947C253.758 359.806 253.875 359.712 253.992 359.712ZM256.383 357.433C256.5 357.433 256.617 357.503 256.664 357.621C256.852 358.114 256.945 358.631 256.969 359.172C256.969 359.336 256.852 359.477 256.688 359.477C256.523 359.477 256.383 359.36 256.383 359.195C256.359 358.725 256.266 358.279 256.125 357.832C256.078 357.668 256.148 357.503 256.313 357.456C256.313 357.433 256.359 357.433 256.383 357.433ZM259.195 358.866C259.289 358.866 259.383 358.913 259.43 358.984C259.523 359.125 259.5 359.313 259.383 359.407C258.961 359.736 258.516 360.018 258.023 360.253C257.883 360.323 257.695 360.253 257.625 360.112C257.555 359.971 257.625 359.783 257.766 359.712C258.211 359.501 258.633 359.242 259.008 358.937C259.055 358.89 259.125 358.866 259.195 358.866ZM257.695 361.005C257.813 361.005 257.906 361.075 257.977 361.169C258.094 361.404 258.258 361.616 258.539 361.968C258.609 362.062 258.703 362.18 258.797 362.297C258.891 362.438 258.867 362.626 258.75 362.72C258.609 362.814 258.422 362.791 258.328 362.673C258.234 362.556 258.141 362.438 258.07 362.344C257.766 361.968 257.578 361.733 257.437 361.428C257.367 361.287 257.438 361.099 257.578 361.028C257.602 361.005 257.648 361.005 257.695 361.005ZM256.242 361.075C256.312 361.075 256.359 361.099 256.43 361.122C256.57 361.216 256.594 361.404 256.5 361.545C256.219 361.945 255.961 362.344 255.727 362.767C255.656 362.908 255.469 362.979 255.328 362.885C255.187 362.814 255.117 362.626 255.211 362.485C255.445 362.039 255.727 361.592 256.031 361.169C256.078 361.122 256.148 361.075 256.242 361.075ZM133.758 284.042C133.781 284.042 133.805 284.042 133.852 284.066C134.414 284.23 134.789 284.277 135.422 284.23C135.586 284.23 135.727 284.348 135.75 284.512C135.75 284.677 135.633 284.818 135.469 284.841C134.742 284.888 134.32 284.841 133.688 284.653C133.523 284.606 133.43 284.442 133.477 284.277C133.523 284.136 133.641 284.042 133.758 284.042ZM136.148 281.763C136.266 281.763 136.383 281.833 136.43 281.951C136.617 282.444 136.711 282.961 136.734 283.502C136.734 283.666 136.617 283.807 136.453 283.807C136.289 283.807 136.148 283.69 136.148 283.525C136.125 283.055 136.031 282.609 135.891 282.162C135.844 281.998 135.914 281.833 136.078 281.786C136.078 281.763 136.125 281.763 136.148 281.763ZM138.961 283.196C139.055 283.196 139.148 283.243 139.195 283.314C139.289 283.455 139.266 283.643 139.148 283.737C138.727 284.066 138.281 284.348 137.789 284.583C137.648 284.653 137.461 284.583 137.391 284.442C137.32 284.301 137.391 284.113 137.531 284.042C137.977 283.831 138.398 283.572 138.773 283.267C138.82 283.22 138.891 283.196 138.961 283.196ZM137.461 285.335C137.578 285.335 137.672 285.405 137.742 285.499C137.859 285.734 138.023 285.946 138.305 286.298C138.375 286.392 138.469 286.51 138.563 286.627C138.656 286.768 138.633 286.956 138.516 287.05C138.375 287.144 138.188 287.121 138.094 287.003C138 286.886 137.906 286.768 137.836 286.674C137.531 286.298 137.344 286.063 137.203 285.758C137.133 285.617 137.203 285.429 137.344 285.358C137.367 285.335 137.414 285.335 137.461 285.335ZM136.008 285.405C136.078 285.405 136.125 285.429 136.195 285.452C136.336 285.546 136.359 285.734 136.266 285.875C135.984 286.275 135.727 286.674 135.492 287.097C135.422 287.238 135.234 287.309 135.094 287.215C134.953 287.144 134.883 286.956 134.977 286.815C135.211 286.369 135.492 285.922 135.797 285.499C135.844 285.452 135.914 285.405 136.008 285.405ZM63.3516 239.251C63.6797 239.251 64.0313 239.298 64.4063 239.416C66.375 240.05 68.2969 242.4 68.7891 244.116C68.8828 244.445 68.9532 244.797 69 245.15C70.8985 244.374 72.6328 242.659 72.6094 240.215C72.6094 239.862 72.8906 239.58 73.2422 239.557C73.5938 239.557 73.875 239.839 73.875 240.191C73.8984 241.766 73.3125 243.223 72.2344 244.421C71.3906 245.361 70.2656 246.09 69.0235 246.489C68.9063 248.017 68.2969 249.521 67.2891 250.578C65.6485 252.317 63.0235 252.67 60.8907 252.952L60.7266 252.975C60.375 253.022 60.0469 252.764 60 252.435C59.9531 252.082 60.211 251.753 60.5391 251.706L60.7031 251.683C62.7188 251.401 65.0156 251.095 66.3281 249.709C67.0313 248.957 67.5 247.899 67.6641 246.795C65.8125 247.03 63.5157 246.489 61.9688 245.455C60.961 244.774 60.3047 243.622 60.2813 242.471C60.2344 241.46 60.6797 240.52 61.5 239.862C62.0625 239.486 62.6719 239.251 63.3516 239.251ZM67.7344 245.526C67.711 245.173 67.6406 244.821 67.5469 244.492C67.1484 243.129 65.5078 241.155 64.0078 240.661C63.3516 240.45 62.8125 240.544 62.3203 240.92C61.6875 241.413 61.5703 242.048 61.5938 242.471C61.6172 243.223 62.0625 243.975 62.7188 244.421C64.0547 245.338 66.1641 245.784 67.7344 245.526Z" fill="#BBEABA" fill-opacity="0.6"/>
<path d="M0 374H375V562H0V374Z" fill="#F0FFEB"/>
<path d="M116.602 546.678C116.016 546.396 110.789 544.657 110.602 544.916C110.484 545.08 111.516 550.509 111.68 550.673C111.727 550.744 115.43 547.783 116.602 546.678ZM87.5859 427.838C87.5859 427.815 88.7344 425.629 89.2266 424.501C89.25 424.431 89.2969 424.243 89.3203 424.125C89.3438 424.031 89.3906 423.961 89.4609 423.914C89.5312 423.867 89.6016 423.89 89.6484 423.937L92.7188 426.828C92.7656 426.875 92.7891 426.945 92.8125 427.016C92.8125 427.086 92.8125 427.18 92.7656 427.251C92.7422 427.274 92.4375 427.838 92.2734 428.097C91.7109 428.966 90.75 430.94 90.75 430.964C90.7031 431.034 90.6563 431.081 90.5859 431.105C90.5156 431.105 90.4688 431.081 90.4219 431.034C90.4219 431.034 90 430.447 89.7891 430.188C89.4375 429.812 89.0859 429.436 88.7109 429.084C88.4297 428.802 88.3359 428.755 88.2188 428.708C88.1016 428.637 87.9609 428.59 87.6328 428.261C87.5391 428.144 87.5156 427.956 87.5859 427.838ZM367.266 555.021C367.266 554.856 367.383 554.739 367.547 554.739C367.57 554.739 367.617 554.739 367.641 554.762C368.016 554.809 370.992 554.786 372.844 554.762C372.914 554.762 372.984 554.786 373.055 554.856C373.102 554.903 373.148 554.974 373.148 555.068C373.148 555.115 373.148 556.219 373.125 556.454L373.031 559.65C373.031 559.721 372.984 559.791 372.937 559.862C372.891 559.909 372.82 559.932 372.75 559.932H372.727C371.016 559.768 369.281 559.721 367.57 559.791C367.5 559.791 367.406 559.768 367.359 559.721C367.313 559.674 367.266 559.58 367.266 559.509C367.289 558.076 367.289 556.407 367.266 555.021Z" fill="#FBFBD6"/>
<path d="M334.898 464.099C334.594 463.511 331.547 458.929 331.242 459.023C331.055 459.093 328.547 464.005 328.547 464.216C328.57 464.287 333.305 464.24 334.898 464.099ZM235.219 541.273C235.242 541.249 236.789 539.346 237.492 538.335C237.539 538.265 237.609 538.1 237.656 537.983C237.703 537.889 237.75 537.818 237.82 537.795C237.891 537.771 237.961 537.795 238.008 537.865L240.469 541.32C240.516 541.367 240.516 541.437 240.516 541.531C240.516 541.602 240.469 541.696 240.422 541.743C240.398 541.766 240 542.26 239.766 542.471C239.039 543.2 237.703 544.939 237.68 544.962C237.633 545.033 237.563 545.056 237.492 545.056C237.422 545.056 237.375 545.009 237.352 544.939C237.352 544.939 237.07 544.281 236.883 543.975C236.625 543.529 236.344 543.106 236.063 542.683C235.852 542.354 235.758 542.283 235.664 542.213C235.547 542.119 235.43 542.048 235.172 541.649C235.102 541.578 235.125 541.39 235.219 541.273ZM204.492 416.277C204.352 416.324 204.187 416.23 204.164 416.089C204.164 416.065 204.164 416.042 204.164 415.995C204.117 415.666 203.508 413.034 203.109 411.412C203.086 411.342 203.109 411.271 203.156 411.224C203.203 411.154 203.273 411.13 203.344 411.107C203.391 411.107 204.445 410.848 204.68 410.801L207.82 410.167C207.891 410.143 207.984 410.167 208.031 410.214C208.078 410.261 208.125 410.308 208.148 410.355V410.378C208.336 411.906 208.664 413.457 209.063 414.937C209.086 415.008 209.063 415.078 209.016 415.149C208.969 415.219 208.898 415.243 208.828 415.266C207.469 415.572 205.852 415.948 204.492 416.277ZM204.258 415.854C204.281 415.83 204.305 415.807 204.352 415.807C204.305 415.807 204.281 415.83 204.258 415.854Z" fill="#FFECE4"/>
<path d="M211.031 485.084C211.383 485.084 211.688 484.896 211.852 484.544C212.039 484.097 211.852 483.557 211.406 483.369C210.539 482.993 209.813 482.264 209.438 481.371C209.063 480.478 209.039 479.468 209.391 478.575C209.461 478.363 209.578 478.152 209.672 477.917C209.859 477.517 210.094 477.047 210.211 476.53C210.422 475.567 210.258 474.509 209.742 473.522C209.344 472.794 208.781 472.089 207.961 471.384C207.586 471.055 207.024 471.102 206.719 471.478C206.391 471.854 206.438 472.418 206.813 472.723C207.469 473.311 207.914 473.828 208.195 474.368C208.524 474.979 208.641 475.614 208.5 476.154C208.43 476.483 208.266 476.812 208.102 477.165C207.985 477.423 207.867 477.682 207.75 477.94C207.258 479.256 207.281 480.76 207.82 482.076C208.359 483.369 209.414 484.45 210.703 485.014C210.797 485.061 210.914 485.084 211.031 485.084ZM201.469 473.029C201.117 472.982 200.766 473.146 200.578 473.475C200.32 473.898 200.484 474.462 200.906 474.721C201.774 475.214 202.406 476.037 202.688 476.953C202.969 477.893 202.875 478.927 202.43 479.797C202.336 480.008 202.195 480.196 202.055 480.431C201.82 480.831 201.539 481.254 201.352 481.771C201.024 482.711 201.07 483.815 201.492 484.873C201.82 485.672 202.313 486.424 203.086 487.246C203.438 487.622 204 487.646 204.375 487.293C204.75 486.964 204.774 486.377 204.422 486.024C203.813 485.366 203.414 484.779 203.18 484.215C202.922 483.557 202.875 482.899 203.063 482.358C203.18 482.053 203.367 481.724 203.578 481.395C203.719 481.16 203.883 480.901 204.024 480.643C204.68 479.374 204.82 477.846 204.422 476.46C204 475.073 203.063 473.875 201.797 473.17C201.703 473.076 201.586 473.029 201.469 473.029ZM313.758 512.862C312.422 514.46 311.649 516.551 311.555 518.125C311.438 519.841 312.117 521.98 313.945 522.92C314.649 523.272 315.516 523.437 316.57 523.437C318.422 523.413 319.594 522.755 320.18 521.463C320.672 520.358 320.719 518.783 319.758 517.726C319.008 516.903 317.93 516.762 317.133 517.35C316.852 517.562 316.781 517.985 316.992 518.267C317.203 518.549 317.625 518.619 317.906 518.408C318.328 518.102 318.75 518.548 318.797 518.595C319.359 519.206 319.289 520.241 318.984 520.922C318.633 521.721 317.883 522.097 316.547 522.121C315.703 522.121 315.047 522.003 314.531 521.745C313.43 521.181 312.727 519.724 312.844 518.22C312.961 516.504 314.086 513.942 315.891 512.603C316.875 511.874 317.883 511.639 318.914 511.874C319.641 512.039 320.367 512.438 321.188 513.049C322.734 514.248 323.93 515.823 324.516 517.515C325.149 519.324 325.008 521.227 324.07 523.131C323.906 523.46 324.047 523.86 324.375 524.001C324.703 524.165 325.102 524.024 325.242 523.695C326.32 521.486 326.508 519.183 325.758 517.068C325.078 515.141 323.742 513.331 321.984 511.992C321.024 511.263 320.109 510.793 319.219 510.582C317.813 510.253 316.406 510.582 315.117 511.522C314.625 511.921 314.156 512.368 313.758 512.862Z" fill="#BBEABA" fill-opacity="0.6"/>
<path d="M137.414 411.835C136.495 411.835 135.75 411.088 135.75 410.167C135.75 409.245 136.495 408.498 137.414 408.498C138.333 408.498 139.078 409.245 139.078 410.167C139.078 411.088 138.333 411.835 137.414 411.835Z" fill="#BBEABA" fill-opacity="0.6"/>
<path d="M134.93 406.712C134.011 406.712 133.266 405.965 133.266 405.044C133.266 404.122 134.011 403.375 134.93 403.375C135.849 403.375 136.594 404.122 136.594 405.044C136.594 405.965 135.849 406.712 134.93 406.712Z" fill="#BBEABA" fill-opacity="0.6"/>
<path d="M131.883 410.66C130.964 410.66 130.219 409.913 130.219 408.992C130.219 408.07 130.964 407.323 131.883 407.323C132.802 407.323 133.547 408.07 133.547 408.992C133.547 409.913 132.802 410.66 131.883 410.66Z" fill="#BBEABA" fill-opacity="0.6"/>
<path d="M21.3985 443.842C22.5235 442.573 23.6719 441.304 24.8672 440.035C23.5547 438.719 22.2656 437.332 21.211 435.758C20.9297 435.358 21.0469 434.794 21.4453 434.536C21.8438 434.254 22.4063 434.371 22.6641 434.771C23.6484 436.228 24.7969 437.497 26.0625 438.742C27.1875 437.567 28.336 436.392 29.5078 435.241C29.8594 434.888 30.4219 434.888 30.75 435.241C31.1016 435.593 31.1016 436.157 30.75 436.486C29.6016 437.614 28.4766 438.789 27.3516 439.964C27.6094 440.223 27.8906 440.481 28.1719 440.716C29.1328 441.609 30.1406 442.549 31.0781 443.536C31.4063 443.889 31.4063 444.429 31.0781 444.782C30.7266 445.111 30.1641 445.111 29.836 444.758C28.9219 443.818 27.9375 442.902 27 442.009C26.7188 441.75 26.4609 441.492 26.1797 441.233C25.0313 442.479 23.8828 443.724 22.7578 444.97C22.7344 444.993 22.7344 444.993 22.711 445.017C22.3828 445.346 21.8438 445.369 21.4922 445.064C21.0938 444.782 21.0703 444.218 21.3985 443.842ZM298.219 432.421L298.312 431.81C298.664 429.201 298.828 426.358 298.852 423.115C298.852 421.822 298.852 420.412 298.805 418.767C298.805 418.603 298.805 418.415 298.805 418.227C298.805 417.052 298.805 415.595 297.891 415.054C297.375 414.749 296.695 414.819 295.898 415.266C294.562 415.994 292.805 417.31 291.797 418.767C290.508 420.6 290.086 422.739 290.625 424.807C291.375 427.697 294.141 432.092 297.656 432.35L298.219 432.421ZM297.164 416.112C297.211 416.112 297.234 416.112 297.258 416.135C297.281 416.159 297.422 416.253 297.516 416.77C297.586 417.216 297.586 417.757 297.586 418.25C297.586 418.438 297.586 418.65 297.586 418.814C297.633 420.436 297.633 421.822 297.633 423.115C297.609 426.052 297.469 428.637 297.164 431.034C294.586 430.4 292.383 426.781 291.773 424.501C291.328 422.809 291.68 421.023 292.758 419.496C293.672 418.203 295.312 417.005 296.484 416.37C296.812 416.182 297.047 416.112 297.164 416.112ZM253.992 388.288C254.016 388.288 254.039 388.288 254.086 388.264C254.648 388.1 255.023 388.053 255.656 388.1C255.82 388.1 255.961 387.982 255.984 387.818C255.984 387.653 255.867 387.512 255.703 387.489C254.977 387.442 254.555 387.489 253.922 387.677C253.758 387.724 253.664 387.888 253.711 388.053C253.758 388.194 253.875 388.288 253.992 388.288ZM256.383 390.567C256.5 390.567 256.617 390.497 256.664 390.379C256.852 389.886 256.945 389.369 256.969 388.828C256.969 388.664 256.852 388.523 256.688 388.523C256.523 388.523 256.383 388.64 256.383 388.805C256.359 389.275 256.266 389.721 256.125 390.168C256.078 390.332 256.148 390.497 256.313 390.544C256.313 390.567 256.359 390.567 256.383 390.567ZM259.195 389.134C259.289 389.134 259.383 389.087 259.43 389.016C259.523 388.875 259.5 388.687 259.383 388.593C258.961 388.264 258.516 387.982 258.023 387.747C257.883 387.677 257.695 387.747 257.625 387.888C257.555 388.029 257.625 388.217 257.766 388.288C258.211 388.499 258.633 388.758 259.008 389.063C259.055 389.11 259.125 389.134 259.195 389.134ZM257.695 386.995C257.813 386.995 257.906 386.925 257.977 386.831C258.094 386.596 258.258 386.384 258.539 386.032C258.609 385.938 258.703 385.82 258.797 385.703C258.891 385.562 258.867 385.374 258.75 385.28C258.609 385.186 258.422 385.209 258.328 385.327C258.234 385.444 258.141 385.562 258.07 385.656C257.766 386.032 257.578 386.267 257.437 386.572C257.367 386.713 257.438 386.901 257.578 386.972C257.602 386.995 257.648 386.995 257.695 386.995ZM256.242 386.925C256.312 386.925 256.359 386.901 256.43 386.878C256.57 386.784 256.594 386.596 256.5 386.455C256.219 386.055 255.961 385.656 255.727 385.233C255.656 385.092 255.469 385.021 255.328 385.115C255.187 385.186 255.117 385.374 255.211 385.515C255.445 385.961 255.727 386.408 256.031 386.831C256.078 386.878 256.148 386.925 256.242 386.925ZM133.758 463.958C133.781 463.958 133.805 463.958 133.852 463.934C134.414 463.77 134.789 463.723 135.422 463.77C135.586 463.77 135.727 463.652 135.75 463.488C135.75 463.323 135.633 463.182 135.469 463.159C134.742 463.112 134.32 463.159 133.688 463.347C133.523 463.394 133.43 463.558 133.477 463.723C133.523 463.864 133.641 463.958 133.758 463.958ZM136.148 466.237C136.266 466.237 136.383 466.167 136.43 466.049C136.617 465.556 136.711 465.039 136.734 464.498C136.734 464.334 136.617 464.193 136.453 464.193C136.289 464.193 136.148 464.31 136.148 464.475C136.125 464.945 136.031 465.391 135.891 465.838C135.844 466.002 135.914 466.167 136.078 466.214C136.078 466.237 136.125 466.237 136.148 466.237ZM138.961 464.804C139.055 464.804 139.148 464.757 139.195 464.686C139.289 464.545 139.266 464.357 139.148 464.263C138.727 463.934 138.281 463.652 137.789 463.417C137.648 463.347 137.461 463.417 137.391 463.558C137.32 463.699 137.391 463.887 137.531 463.958C137.977 464.169 138.398 464.428 138.773 464.733C138.82 464.78 138.891 464.804 138.961 464.804ZM137.461 462.665C137.578 462.665 137.672 462.595 137.742 462.501C137.859 462.266 138.023 462.054 138.305 461.702C138.375 461.608 138.469 461.49 138.563 461.373C138.656 461.232 138.633 461.044 138.516 460.95C138.375 460.856 138.188 460.879 138.094 460.997C138 461.114 137.906 461.232 137.836 461.326C137.531 461.702 137.344 461.937 137.203 462.242C137.133 462.383 137.203 462.571 137.344 462.642C137.367 462.665 137.414 462.665 137.461 462.665ZM136.008 462.595C136.078 462.595 136.125 462.571 136.195 462.548C136.336 462.454 136.359 462.266 136.266 462.125C135.984 461.725 135.727 461.326 135.492 460.903C135.422 460.762 135.234 460.691 135.094 460.785C134.953 460.856 134.883 461.044 134.977 461.185C135.211 461.631 135.492 462.078 135.797 462.501C135.844 462.548 135.914 462.595 136.008 462.595ZM63.3516 508.749C63.6797 508.749 64.0313 508.702 64.4063 508.584C66.375 507.95 68.2969 505.6 68.7891 503.884C68.8828 503.555 68.9532 503.203 69 502.85C70.8985 503.626 72.6328 505.341 72.6094 507.785C72.6094 508.138 72.8906 508.42 73.2422 508.443C73.5938 508.443 73.875 508.161 73.875 507.809C73.8984 506.234 73.3125 504.777 72.2344 503.579C71.3906 502.639 70.2656 501.91 69.0235 501.511C68.9063 499.983 68.2969 498.479 67.2891 497.422C65.6485 495.683 63.0235 495.33 60.8907 495.048L60.7266 495.025C60.375 494.978 60.0469 495.236 60 495.565C59.9531 495.918 60.211 496.247 60.5391 496.294L60.7031 496.317C62.7188 496.599 65.0156 496.905 66.3281 498.291C67.0313 499.043 67.5 500.101 67.6641 501.205C65.8125 500.97 63.5157 501.511 61.9688 502.545C60.961 503.226 60.3047 504.378 60.2813 505.529C60.2344 506.54 60.6797 507.48 61.5 508.138C62.0625 508.514 62.6719 508.749 63.3516 508.749ZM67.7344 502.474C67.711 502.827 67.6406 503.179 67.5469 503.508C67.1484 504.871 65.5078 506.845 64.0078 507.339C63.3516 507.55 62.8125 507.456 62.3203 507.08C61.6875 506.587 61.5703 505.952 61.5938 505.529C61.6172 504.777 62.0625 504.025 62.7188 503.579C64.0547 502.662 66.1641 502.216 67.7344 502.474Z" fill="#BBEABA" fill-opacity="0.6"/>
<path d="M0 562H375V749.5H0V562Z" fill="#F0FFEB"/>
<path d="M116.602 734.219C116.016 733.938 110.789 732.203 110.602 732.461C110.484 732.625 111.516 738.039 111.68 738.203C111.727 738.274 115.43 735.32 116.602 734.219ZM87.5859 615.695C87.5859 615.672 88.7344 613.492 89.2266 612.367C89.25 612.297 89.2969 612.109 89.3203 611.992C89.3438 611.898 89.3906 611.828 89.4609 611.781C89.5312 611.734 89.6016 611.758 89.6484 611.805L92.7188 614.688C92.7656 614.734 92.7891 614.805 92.8125 614.875C92.8125 614.945 92.8125 615.039 92.7656 615.109C92.7422 615.133 92.4375 615.695 92.2734 615.953C91.7109 616.82 90.75 618.789 90.75 618.813C90.7031 618.883 90.6563 618.93 90.5859 618.953C90.5156 618.953 90.4688 618.93 90.4219 618.883C90.4219 618.883 90 618.297 89.7891 618.039C89.4375 617.664 89.0859 617.289 88.7109 616.938C88.4297 616.656 88.3359 616.609 88.2188 616.563C88.1016 616.492 87.9609 616.445 87.6328 616.117C87.5391 616 87.5156 615.813 87.5859 615.695ZM367.266 742.539C367.266 742.375 367.383 742.258 367.547 742.258C367.57 742.258 367.617 742.258 367.641 742.281C368.016 742.328 370.992 742.305 372.844 742.281C372.914 742.281 372.984 742.305 373.055 742.375C373.102 742.422 373.148 742.492 373.148 742.586C373.148 742.633 373.148 743.734 373.125 743.969L373.031 747.156C373.031 747.227 372.984 747.297 372.937 747.367C372.891 747.414 372.82 747.438 372.75 747.438H372.727C371.016 747.274 369.281 747.227 367.57 747.297C367.5 747.297 367.406 747.274 367.359 747.227C367.313 747.18 367.266 747.086 367.266 747.016C367.289 745.586 367.289 743.922 367.266 742.539Z" fill="#FBFBD6"/>
<path d="M334.898 651.859C334.594 651.273 331.547 646.703 331.242 646.797C331.055 646.867 328.547 651.766 328.547 651.977C328.57 652.047 333.305 652 334.898 651.859ZM235.219 728.828C235.242 728.805 236.789 726.906 237.492 725.898C237.539 725.828 237.609 725.664 237.656 725.547C237.703 725.453 237.75 725.383 237.82 725.359C237.891 725.336 237.961 725.359 238.008 725.43L240.469 728.875C240.516 728.922 240.516 728.992 240.516 729.086C240.516 729.156 240.469 729.25 240.422 729.297C240.398 729.32 240 729.813 239.766 730.023C239.039 730.75 237.703 732.484 237.68 732.508C237.633 732.578 237.563 732.602 237.492 732.602C237.422 732.602 237.375 732.555 237.352 732.484C237.352 732.484 237.07 731.828 236.883 731.523C236.625 731.078 236.344 730.656 236.063 730.234C235.852 729.906 235.758 729.836 235.664 729.766C235.547 729.672 235.43 729.602 235.172 729.203C235.102 729.133 235.125 728.945 235.219 728.828ZM204.492 604.164C204.352 604.211 204.187 604.117 204.164 603.977C204.164 603.953 204.164 603.93 204.164 603.883C204.117 603.555 203.508 600.93 203.109 599.313C203.086 599.242 203.109 599.172 203.156 599.125C203.203 599.055 203.273 599.031 203.344 599.008C203.391 599.008 204.445 598.75 204.68 598.703L207.82 598.07C207.891 598.047 207.984 598.07 208.031 598.117C208.078 598.164 208.125 598.211 208.148 598.258V598.281C208.336 599.805 208.664 601.352 209.063 602.828C209.086 602.898 209.063 602.969 209.016 603.039C208.969 603.109 208.898 603.133 208.828 603.156C207.469 603.461 205.852 603.836 204.492 604.164ZM204.258 603.742C204.281 603.719 204.305 603.695 204.352 603.695C204.305 603.695 204.281 603.719 204.258 603.742Z" fill="#FFECE4"/>
<path d="M211.031 672.789C211.383 672.789 211.688 672.602 211.852 672.25C212.039 671.805 211.852 671.266 211.406 671.078C210.539 670.703 209.813 669.977 209.438 669.086C209.063 668.195 209.039 667.187 209.391 666.297C209.461 666.086 209.578 665.875 209.672 665.641C209.859 665.242 210.094 664.773 210.211 664.258C210.422 663.297 210.258 662.242 209.742 661.258C209.344 660.531 208.781 659.828 207.961 659.125C207.586 658.797 207.024 658.844 206.719 659.219C206.391 659.594 206.438 660.156 206.813 660.461C207.469 661.047 207.914 661.562 208.195 662.102C208.524 662.711 208.641 663.344 208.5 663.883C208.43 664.211 208.266 664.539 208.102 664.891C207.985 665.148 207.867 665.406 207.75 665.664C207.258 666.977 207.281 668.477 207.82 669.789C208.359 671.078 209.414 672.156 210.703 672.719C210.797 672.766 210.914 672.789 211.031 672.789ZM201.469 660.766C201.117 660.719 200.766 660.883 200.578 661.211C200.32 661.633 200.484 662.195 200.906 662.453C201.774 662.945 202.406 663.766 202.688 664.68C202.969 665.617 202.875 666.648 202.43 667.516C202.336 667.727 202.195 667.914 202.055 668.148C201.82 668.547 201.539 668.969 201.352 669.484C201.024 670.422 201.07 671.523 201.492 672.578C201.82 673.375 202.313 674.125 203.086 674.945C203.438 675.32 204 675.344 204.375 674.992C204.75 674.664 204.774 674.078 204.422 673.727C203.813 673.07 203.414 672.484 203.18 671.922C202.922 671.266 202.875 670.609 203.063 670.07C203.18 669.766 203.367 669.437 203.578 669.109C203.719 668.875 203.883 668.617 204.024 668.359C204.68 667.094 204.82 665.57 204.422 664.187C204 662.805 203.063 661.609 201.797 660.906C201.703 660.812 201.586 660.766 201.469 660.766ZM313.758 700.492C312.422 702.086 311.649 704.172 311.555 705.742C311.438 707.453 312.117 709.586 313.945 710.523C314.649 710.875 315.516 711.039 316.57 711.039C318.422 711.016 319.594 710.359 320.18 709.07C320.672 707.969 320.719 706.398 319.758 705.344C319.008 704.523 317.93 704.383 317.133 704.969C316.852 705.18 316.781 705.602 316.992 705.883C317.203 706.164 317.625 706.234 317.906 706.023C318.328 705.719 318.75 706.164 318.797 706.211C319.359 706.82 319.289 707.852 318.984 708.531C318.633 709.328 317.883 709.703 316.547 709.727C315.703 709.727 315.047 709.609 314.531 709.352C313.43 708.789 312.727 707.336 312.844 705.836C312.961 704.125 314.086 701.57 315.891 700.234C316.875 699.508 317.883 699.273 318.914 699.508C319.641 699.672 320.367 700.07 321.188 700.68C322.734 701.875 323.93 703.445 324.516 705.133C325.149 706.938 325.008 708.836 324.07 710.734C323.906 711.062 324.047 711.461 324.375 711.602C324.703 711.766 325.102 711.625 325.242 711.297C326.32 709.094 326.508 706.797 325.758 704.687C325.078 702.766 323.742 700.961 321.984 699.625C321.024 698.898 320.109 698.43 319.219 698.219C317.813 697.891 316.406 698.219 315.117 699.156C314.625 699.555 314.156 700 313.758 700.492Z" fill="#BBEABA" fill-opacity="0.6"/>
<path d="M137.414 599.734C136.495 599.734 135.75 598.989 135.75 598.07C135.75 597.151 136.495 596.406 137.414 596.406C138.333 596.406 139.078 597.151 139.078 598.07C139.078 598.989 138.333 599.734 137.414 599.734Z" fill="#BBEABA" fill-opacity="0.6"/>
<path d="M134.93 594.625C134.011 594.625 133.266 593.88 133.266 592.961C133.266 592.042 134.011 591.297 134.93 591.297C135.849 591.297 136.594 592.042 136.594 592.961C136.594 593.88 135.849 594.625 134.93 594.625Z" fill="#BBEABA" fill-opacity="0.6"/>
<path d="M131.883 598.562C130.964 598.562 130.219 597.817 130.219 596.898C130.219 595.979 130.964 595.234 131.883 595.234C132.802 595.234 133.547 595.979 133.547 596.898C133.547 597.817 132.802 598.562 131.883 598.562Z" fill="#BBEABA" fill-opacity="0.6"/>
<path d="M21.3985 631.656C22.5235 630.391 23.6719 629.125 24.8672 627.859C23.5547 626.547 22.2656 625.164 21.211 623.594C20.9297 623.195 21.0469 622.633 21.4453 622.375C21.8438 622.094 22.4063 622.211 22.6641 622.609C23.6484 624.062 24.7969 625.328 26.0625 626.57C27.1875 625.398 28.336 624.227 29.5078 623.078C29.8594 622.727 30.4219 622.727 30.75 623.078C31.1016 623.43 31.1016 623.992 30.75 624.32C29.6016 625.445 28.4766 626.617 27.3516 627.789C27.6094 628.047 27.8906 628.305 28.1719 628.539C29.1328 629.43 30.1406 630.367 31.0781 631.352C31.4063 631.703 31.4063 632.242 31.0781 632.594C30.7266 632.922 30.1641 632.922 29.836 632.57C28.9219 631.633 27.9375 630.719 27 629.828C26.7188 629.57 26.4609 629.312 26.1797 629.055C25.0313 630.297 23.8828 631.539 22.7578 632.781C22.7344 632.805 22.7344 632.805 22.711 632.828C22.3828 633.156 21.8438 633.18 21.4922 632.875C21.0938 632.594 21.0703 632.031 21.3985 631.656ZM298.219 620.266L298.312 619.656C298.664 617.055 298.828 614.219 298.852 610.984C298.852 609.695 298.852 608.289 298.805 606.648C298.805 606.484 298.805 606.297 298.805 606.109C298.805 604.937 298.805 603.484 297.891 602.945C297.375 602.641 296.695 602.711 295.898 603.156C294.562 603.883 292.805 605.195 291.797 606.648C290.508 608.477 290.086 610.609 290.625 612.672C291.375 615.555 294.141 619.937 297.656 620.195L298.219 620.266ZM297.164 604C297.211 604 297.234 604 297.258 604.023C297.281 604.047 297.422 604.141 297.516 604.656C297.586 605.102 297.586 605.641 297.586 606.133C297.586 606.32 297.586 606.531 297.586 606.695C297.633 608.312 297.633 609.695 297.633 610.984C297.609 613.914 297.469 616.492 297.164 618.883C294.586 618.25 292.383 614.641 291.773 612.367C291.328 610.68 291.68 608.898 292.758 607.375C293.672 606.086 295.312 604.891 296.484 604.258C296.812 604.07 297.047 604 297.164 604ZM253.992 576.25C254.016 576.25 254.039 576.25 254.086 576.227C254.648 576.062 255.023 576.016 255.656 576.062C255.82 576.062 255.961 575.945 255.984 575.781C255.984 575.617 255.867 575.477 255.703 575.453C254.977 575.406 254.555 575.453 253.922 575.641C253.758 575.687 253.664 575.852 253.711 576.016C253.758 576.156 253.875 576.25 253.992 576.25ZM256.383 578.523C256.5 578.523 256.617 578.453 256.664 578.336C256.852 577.844 256.945 577.328 256.969 576.789C256.969 576.625 256.852 576.484 256.688 576.484C256.523 576.484 256.383 576.602 256.383 576.766C256.359 577.234 256.266 577.68 256.125 578.125C256.078 578.289 256.148 578.453 256.313 578.5C256.313 578.523 256.359 578.523 256.383 578.523ZM259.195 577.094C259.289 577.094 259.383 577.047 259.43 576.977C259.523 576.836 259.5 576.648 259.383 576.555C258.961 576.227 258.516 575.945 258.023 575.711C257.883 575.641 257.695 575.711 257.625 575.852C257.555 575.992 257.625 576.18 257.766 576.25C258.211 576.461 258.633 576.719 259.008 577.023C259.055 577.07 259.125 577.094 259.195 577.094ZM257.695 574.961C257.813 574.961 257.906 574.891 257.977 574.797C258.094 574.562 258.258 574.352 258.539 574C258.609 573.906 258.703 573.789 258.797 573.672C258.891 573.531 258.867 573.344 258.75 573.25C258.609 573.156 258.422 573.18 258.328 573.297C258.234 573.414 258.141 573.531 258.07 573.625C257.766 574 257.578 574.234 257.437 574.539C257.367 574.68 257.438 574.867 257.578 574.937C257.602 574.961 257.648 574.961 257.695 574.961ZM256.242 574.891C256.312 574.891 256.359 574.867 256.43 574.844C256.57 574.75 256.594 574.562 256.5 574.422C256.219 574.023 255.961 573.625 255.727 573.203C255.656 573.062 255.469 572.992 255.328 573.086C255.187 573.156 255.117 573.344 255.211 573.484C255.445 573.93 255.727 574.375 256.031 574.797C256.078 574.844 256.148 574.891 256.242 574.891ZM133.758 651.719C133.781 651.719 133.805 651.719 133.852 651.695C134.414 651.531 134.789 651.484 135.422 651.531C135.586 651.531 135.727 651.414 135.75 651.25C135.75 651.086 135.633 650.945 135.469 650.922C134.742 650.875 134.32 650.922 133.688 651.109C133.523 651.156 133.43 651.32 133.477 651.484C133.523 651.625 133.641 651.719 133.758 651.719ZM136.148 653.992C136.266 653.992 136.383 653.922 136.43 653.805C136.617 653.312 136.711 652.797 136.734 652.258C136.734 652.094 136.617 651.953 136.453 651.953C136.289 651.953 136.148 652.07 136.148 652.234C136.125 652.703 136.031 653.148 135.891 653.594C135.844 653.758 135.914 653.922 136.078 653.969C136.078 653.992 136.125 653.992 136.148 653.992ZM138.961 652.562C139.055 652.562 139.148 652.516 139.195 652.445C139.289 652.305 139.266 652.117 139.148 652.023C138.727 651.695 138.281 651.414 137.789 651.18C137.648 651.109 137.461 651.18 137.391 651.32C137.32 651.461 137.391 651.648 137.531 651.719C137.977 651.93 138.398 652.187 138.773 652.492C138.82 652.539 138.891 652.562 138.961 652.562ZM137.461 650.43C137.578 650.43 137.672 650.359 137.742 650.266C137.859 650.031 138.023 649.82 138.305 649.469C138.375 649.375 138.469 649.258 138.563 649.141C138.656 649 138.633 648.812 138.516 648.719C138.375 648.625 138.188 648.648 138.094 648.766C138 648.883 137.906 649 137.836 649.094C137.531 649.469 137.344 649.703 137.203 650.008C137.133 650.148 137.203 650.336 137.344 650.406C137.367 650.43 137.414 650.43 137.461 650.43ZM136.008 650.359C136.078 650.359 136.125 650.336 136.195 650.312C136.336 650.219 136.359 650.031 136.266 649.891C135.984 649.492 135.727 649.094 135.492 648.672C135.422 648.531 135.234 648.461 135.094 648.555C134.953 648.625 134.883 648.812 134.977 648.953C135.211 649.398 135.492 649.844 135.797 650.266C135.844 650.312 135.914 650.359 136.008 650.359ZM63.3516 696.391C63.6797 696.391 64.0313 696.344 64.4063 696.226C66.375 695.594 68.2969 693.25 68.7891 691.539C68.8828 691.211 68.9532 690.859 69 690.508C70.8985 691.281 72.6328 692.992 72.6094 695.43C72.6094 695.781 72.8906 696.062 73.2422 696.086C73.5938 696.086 73.875 695.805 73.875 695.453C73.8984 693.883 73.3125 692.43 72.2344 691.234C71.3906 690.297 70.2656 689.57 69.0235 689.172C68.9063 687.648 68.2969 686.148 67.2891 685.094C65.6485 683.359 63.0235 683.008 60.8907 682.726L60.7266 682.703C60.375 682.656 60.0469 682.914 60 683.242C59.9531 683.594 60.211 683.922 60.5391 683.969L60.7031 683.992C62.7188 684.273 65.0156 684.578 66.3281 685.961C67.0313 686.711 67.5 687.766 67.6641 688.867C65.8125 688.633 63.5157 689.172 61.9688 690.203C60.961 690.883 60.3047 692.031 60.2813 693.18C60.2344 694.187 60.6797 695.125 61.5 695.781C62.0625 696.156 62.6719 696.391 63.3516 696.391ZM67.7344 690.133C67.711 690.484 67.6406 690.836 67.5469 691.164C67.1484 692.523 65.5078 694.492 64.0078 694.984C63.3516 695.195 62.8125 695.101 62.3203 694.726C61.6875 694.234 61.5703 693.601 61.5938 693.18C61.6172 692.43 62.0625 691.68 62.7188 691.234C64.0547 690.32 66.1641 689.875 67.7344 690.133Z" fill="#BBEABA" fill-opacity="0.6"/>
<path d="M375 0H0V188H375V0Z" fill="#F0FFEB"/>
<path d="M258.398 172.678C258.984 172.396 264.211 170.657 264.398 170.916C264.516 171.08 263.484 176.509 263.32 176.673C263.273 176.744 259.57 173.783 258.398 172.678ZM287.414 53.8385C287.414 53.815 286.266 51.6295 285.773 50.5015C285.75 50.431 285.703 50.243 285.68 50.1255C285.656 50.0315 285.609 49.961 285.539 49.914C285.469 49.867 285.398 49.8905 285.352 49.9375L282.281 52.828C282.234 52.875 282.211 52.9455 282.187 53.016C282.187 53.0865 282.187 53.1805 282.234 53.251C282.258 53.2745 282.563 53.8385 282.727 54.097C283.289 54.9665 284.25 56.9405 284.25 56.964C284.297 57.0345 284.344 57.0815 284.414 57.105C284.484 57.105 284.531 57.0815 284.578 57.0345C284.578 57.0345 285 56.447 285.211 56.1885C285.562 55.8125 285.914 55.4365 286.289 55.084C286.57 54.802 286.664 54.755 286.781 54.708C286.898 54.6375 287.039 54.5905 287.367 54.2615C287.461 54.144 287.484 53.956 287.414 53.8385ZM7.73438 181.021C7.73438 180.856 7.61719 180.739 7.45312 180.739C7.42969 180.739 7.38281 180.739 7.35938 180.762C6.98437 180.809 4.00781 180.786 2.15625 180.762C2.08594 180.762 2.01563 180.786 1.94531 180.856C1.89844 180.903 1.85156 180.974 1.85156 181.068C1.85156 181.115 1.85156 182.219 1.875 182.454L1.96875 185.65C1.96875 185.721 2.01563 185.791 2.0625 185.862C2.10938 185.909 2.17969 185.932 2.25 185.932H2.27344C3.98437 185.768 5.71875 185.721 7.42969 185.791C7.5 185.791 7.59375 185.768 7.64062 185.721C7.6875 185.674 7.73438 185.58 7.73438 185.509C7.71094 184.076 7.71094 182.407 7.73438 181.021Z" fill="#FBFBD6"/>
<path d="M40.1016 90.099C40.4062 89.5115 43.4531 84.929 43.7578 85.023C43.9453 85.0935 46.4531 90.005 46.4531 90.2165C46.4297 90.287 41.6953 90.24 40.1016 90.099ZM139.781 167.273C139.758 167.25 138.211 165.346 137.508 164.336C137.461 164.265 137.391 164.101 137.344 163.983C137.297 163.889 137.25 163.819 137.18 163.795C137.109 163.772 137.039 163.795 136.992 163.866L134.531 167.32C134.484 167.367 134.484 167.438 134.484 167.532C134.484 167.602 134.531 167.696 134.578 167.743C134.602 167.767 135 168.26 135.234 168.472C135.961 169.2 137.297 170.939 137.32 170.963C137.367 171.033 137.437 171.057 137.508 171.057C137.578 171.057 137.625 171.01 137.648 170.939C137.648 170.939 137.93 170.281 138.117 169.976C138.375 169.529 138.656 169.106 138.937 168.683C139.148 168.354 139.242 168.284 139.336 168.213C139.453 168.119 139.57 168.049 139.828 167.649C139.898 167.579 139.875 167.391 139.781 167.273ZM170.508 42.2765C170.648 42.3235 170.813 42.2295 170.836 42.0885C170.836 42.065 170.836 42.0415 170.836 41.9945C170.883 41.6655 171.492 39.0335 171.891 37.412C171.914 37.3415 171.891 37.271 171.844 37.224C171.797 37.1535 171.727 37.13 171.656 37.1065C171.609 37.1065 170.555 36.848 170.32 36.801L167.18 36.1665C167.109 36.143 167.016 36.1665 166.969 36.2135C166.922 36.2605 166.875 36.3075 166.852 36.3545V36.378C166.664 37.9055 166.336 39.4565 165.937 40.937C165.914 41.0075 165.937 41.078 165.984 41.1485C166.031 41.219 166.102 41.2425 166.172 41.266C167.531 41.5715 169.148 41.9475 170.508 42.2765ZM170.742 41.8535C170.719 41.83 170.695 41.8065 170.648 41.8065C170.695 41.8065 170.719 41.83 170.742 41.8535Z" fill="#FFECE4"/>
<path d="M163.97 111.084C163.618 111.084 163.313 110.896 163.149 110.544C162.962 110.097 163.149 109.557 163.595 109.369C164.462 108.993 165.188 108.264 165.563 107.371C165.938 106.478 165.962 105.468 165.61 104.575C165.54 104.363 165.423 104.152 165.329 103.917C165.141 103.517 164.907 103.047 164.79 102.53C164.579 101.567 164.743 100.509 165.259 99.5225C165.657 98.794 166.22 98.089 167.04 97.384C167.415 97.055 167.977 97.102 168.282 97.478C168.61 97.854 168.563 98.418 168.188 98.7235C167.532 99.311 167.087 99.828 166.806 100.368C166.477 100.979 166.36 101.614 166.501 102.154C166.571 102.483 166.735 102.812 166.899 103.165C167.016 103.423 167.134 103.682 167.251 103.94C167.743 105.256 167.72 106.76 167.181 108.076C166.641 109.369 165.587 110.45 164.298 111.014C164.204 111.061 164.087 111.084 163.97 111.084ZM173.532 99.029C173.884 98.982 174.235 99.1465 174.423 99.4755C174.681 99.8985 174.516 100.462 174.095 100.721C173.227 101.214 172.595 102.037 172.313 102.953C172.032 103.893 172.126 104.927 172.571 105.797C172.665 106.008 172.806 106.196 172.946 106.431C173.181 106.831 173.462 107.254 173.649 107.771C173.977 108.711 173.931 109.815 173.509 110.873C173.181 111.672 172.688 112.424 171.915 113.246C171.563 113.622 171.001 113.646 170.626 113.293C170.251 112.964 170.227 112.377 170.579 112.024C171.188 111.366 171.587 110.779 171.821 110.215C172.079 109.557 172.126 108.899 171.938 108.358C171.821 108.053 171.634 107.724 171.423 107.395C171.282 107.16 171.118 106.901 170.977 106.643C170.321 105.374 170.181 103.846 170.579 102.46C171.001 101.073 171.938 99.875 173.204 99.17C173.298 99.076 173.415 99.029 173.532 99.029ZM61.2431 138.862C62.579 140.46 63.3525 142.551 63.4462 144.125C63.5634 145.841 62.8837 147.98 61.0556 148.92C60.3525 149.272 59.4853 149.437 58.4306 149.437C56.579 149.413 55.4071 148.755 54.8212 147.463C54.329 146.358 54.2821 144.783 55.2431 143.726C55.9931 142.903 57.0712 142.762 57.8681 143.35C58.1493 143.562 58.2196 143.985 58.0087 144.267C57.7978 144.549 57.3759 144.619 57.0946 144.408C56.6728 144.102 56.2509 144.548 56.204 144.595C55.6415 145.206 55.7118 146.241 56.0165 146.922C56.3681 147.721 57.1181 148.097 58.454 148.121C59.2978 148.121 59.954 148.003 60.4696 147.745C61.5712 147.181 62.2743 145.724 62.1571 144.22C62.04 142.504 60.915 139.942 59.1103 138.603C58.1259 137.874 57.1181 137.639 56.0868 137.874C55.3603 138.039 54.6337 138.438 53.8134 139.049C52.2665 140.248 51.0712 141.823 50.4853 143.515C49.8525 145.324 49.9931 147.227 50.9306 149.131C51.0946 149.46 50.954 149.86 50.6259 150.001C50.2978 150.165 49.8993 150.024 49.7587 149.695C48.6806 147.486 48.4931 145.183 49.2431 143.068C49.9228 141.141 51.2587 139.331 53.0165 137.992C53.9775 137.263 54.8915 136.793 55.7821 136.582C57.1884 136.253 58.5946 136.582 59.8837 137.522C60.3759 137.921 60.8446 138.368 61.2431 138.862Z" fill="#BBEABA" fill-opacity="0.6"/>
<path d="M237.587 37.835C238.506 37.835 239.251 37.088 239.251 36.1665C239.251 35.245 238.506 34.498 237.587 34.498C236.668 34.498 235.923 35.245 235.923 36.1665C235.923 37.088 236.668 37.835 237.587 37.835Z" fill="#BBEABA" fill-opacity="0.6"/>
<path d="M240.071 32.712C240.99 32.712 241.735 31.965 241.735 31.0435C241.735 30.122 240.99 29.375 240.071 29.375C239.152 29.375 238.407 30.122 238.407 31.0435C238.407 31.965 239.152 32.712 240.071 32.712Z" fill="#BBEABA" fill-opacity="0.6"/>
<path d="M243.118 36.66C244.037 36.66 244.782 35.913 244.782 34.9915C244.782 34.07 244.037 33.323 243.118 33.323C242.199 33.323 241.454 34.07 241.454 34.9915C241.454 35.913 242.199 36.66 243.118 36.66Z" fill="#BBEABA" fill-opacity="0.6"/>
<path d="M353.603 69.842C352.478 68.573 351.329 67.304 350.134 66.035C351.446 64.719 352.735 63.3325 353.79 61.758C354.071 61.3585 353.954 60.7945 353.556 60.536C353.157 60.254 352.595 60.3715 352.337 60.771C351.353 62.228 350.204 63.497 348.938 64.7425C347.813 63.5675 346.665 62.3925 345.493 61.241C345.142 60.8885 344.579 60.8885 344.251 61.241C343.899 61.5935 343.899 62.1575 344.251 62.4865C345.399 63.6145 346.524 64.7895 347.649 65.9645C347.392 66.223 347.11 66.4815 346.829 66.7165C345.868 67.6095 344.86 68.5495 343.923 69.5365C343.595 69.889 343.595 70.4295 343.923 70.782C344.274 71.111 344.837 71.111 345.165 70.7585C346.079 69.8185 347.063 68.902 348.001 68.009C348.282 67.7505 348.54 67.492 348.821 67.2335C349.97 68.479 351.118 69.7245 352.243 70.97C352.267 70.9935 352.267 70.9935 352.29 71.017C352.618 71.346 353.157 71.3695 353.509 71.064C353.907 70.782 353.931 70.218 353.603 69.842ZM76.7822 58.421L76.6885 57.81C76.3369 55.2015 76.1729 52.358 76.1494 49.115C76.1494 47.8225 76.1494 46.4125 76.1963 44.7675C76.1963 44.603 76.1963 44.415 76.1963 44.227C76.1963 43.052 76.1963 41.595 77.1104 41.0545C77.626 40.749 78.3057 40.8195 79.1025 41.266C80.4385 41.9945 82.1963 43.3105 83.2041 44.7675C84.4932 46.6005 84.915 48.739 84.376 50.807C83.626 53.6975 80.8604 58.092 77.3447 58.3505L76.7822 58.421ZM77.8369 42.112C77.79 42.112 77.7666 42.112 77.7432 42.1355C77.7197 42.159 77.5791 42.253 77.4854 42.77C77.415 43.2165 77.415 43.757 77.415 44.2505C77.415 44.4385 77.415 44.65 77.415 44.8145C77.3682 46.436 77.3682 47.8225 77.3682 49.115C77.3916 52.0525 77.5322 54.6375 77.8369 57.0345C80.415 56.4 82.6182 52.781 83.2275 50.5015C83.6729 48.8095 83.3213 47.0235 82.2432 45.496C81.3291 44.2035 79.6885 43.005 78.5166 42.3705C78.1885 42.1825 77.9541 42.112 77.8369 42.112ZM121.009 14.288C120.985 14.288 120.962 14.288 120.915 14.2645C120.353 14.1 119.978 14.053 119.345 14.1C119.181 14.1 119.04 13.9825 119.017 13.818C119.017 13.6535 119.134 13.5125 119.298 13.489C120.024 13.442 120.446 13.489 121.079 13.677C121.243 13.724 121.337 13.8885 121.29 14.053C121.243 14.194 121.126 14.288 121.009 14.288ZM118.618 16.5675C118.501 16.5675 118.384 16.497 118.337 16.3795C118.149 15.886 118.056 15.369 118.032 14.8285C118.032 14.664 118.149 14.523 118.313 14.523C118.478 14.523 118.618 14.6405 118.618 14.805C118.642 15.275 118.735 15.7215 118.876 16.168C118.923 16.3325 118.853 16.497 118.688 16.544C118.688 16.5675 118.642 16.5675 118.618 16.5675ZM115.806 15.134C115.712 15.134 115.618 15.087 115.571 15.0165C115.478 14.8755 115.501 14.6875 115.618 14.5935C116.04 14.2645 116.485 13.9825 116.978 13.7475C117.118 13.677 117.306 13.7475 117.376 13.8885C117.446 14.0295 117.376 14.2175 117.235 14.288C116.79 14.4995 116.368 14.758 115.993 15.0635C115.946 15.1105 115.876 15.134 115.806 15.134ZM117.306 12.9955C117.188 12.9955 117.095 12.925 117.024 12.831C116.907 12.596 116.743 12.3845 116.462 12.032C116.392 11.938 116.298 11.8205 116.204 11.703C116.11 11.562 116.134 11.374 116.251 11.28C116.392 11.186 116.579 11.2095 116.673 11.327C116.767 11.4445 116.86 11.562 116.931 11.656C117.235 12.032 117.423 12.267 117.563 12.5725C117.634 12.7135 117.563 12.9015 117.423 12.972C117.399 12.9955 117.353 12.9955 117.306 12.9955ZM118.759 12.925C118.688 12.925 118.642 12.9015 118.571 12.878C118.431 12.784 118.407 12.596 118.501 12.455C118.782 12.0555 119.04 11.656 119.274 11.233C119.345 11.092 119.532 11.0215 119.673 11.1155C119.813 11.186 119.884 11.374 119.79 11.515C119.556 11.9615 119.274 12.408 118.97 12.831C118.923 12.878 118.853 12.925 118.759 12.925ZM241.243 89.958C241.22 89.958 241.196 89.958 241.149 89.9345C240.587 89.77 240.212 89.723 239.579 89.77C239.415 89.77 239.274 89.6525 239.251 89.488C239.251 89.3235 239.368 89.1825 239.532 89.159C240.259 89.112 240.681 89.159 241.313 89.347C241.478 89.394 241.571 89.5585 241.524 89.723C241.478 89.864 241.36 89.958 241.243 89.958ZM238.853 92.2375C238.735 92.2375 238.618 92.167 238.571 92.0495C238.384 91.556 238.29 91.039 238.267 90.4985C238.267 90.334 238.384 90.193 238.548 90.193C238.712 90.193 238.853 90.3105 238.853 90.475C238.876 90.945 238.97 91.3915 239.11 91.838C239.157 92.0025 239.087 92.167 238.923 92.214C238.923 92.2375 238.876 92.2375 238.853 92.2375ZM236.04 90.804C235.946 90.804 235.853 90.757 235.806 90.6865C235.712 90.5455 235.735 90.3575 235.853 90.2635C236.274 89.9345 236.72 89.6525 237.212 89.4175C237.353 89.347 237.54 89.4175 237.61 89.5585C237.681 89.6995 237.61 89.8875 237.47 89.958C237.024 90.1695 236.603 90.428 236.228 90.7335C236.181 90.7805 236.11 90.804 236.04 90.804ZM237.54 88.6655C237.423 88.6655 237.329 88.595 237.259 88.501C237.142 88.266 236.978 88.0545 236.696 87.702C236.626 87.608 236.532 87.4905 236.438 87.373C236.345 87.232 236.368 87.044 236.485 86.95C236.626 86.856 236.813 86.8795 236.907 86.997C237.001 87.1145 237.095 87.232 237.165 87.326C237.47 87.702 237.657 87.937 237.798 88.2425C237.868 88.3835 237.798 88.5715 237.657 88.642C237.634 88.6655 237.587 88.6655 237.54 88.6655ZM238.993 88.595C238.923 88.595 238.876 88.5715 238.806 88.548C238.665 88.454 238.642 88.266 238.735 88.125C239.017 87.7255 239.274 87.326 239.509 86.903C239.579 86.762 239.767 86.6915 239.907 86.7855C240.048 86.856 240.118 87.044 240.024 87.185C239.79 87.6315 239.509 88.078 239.204 88.501C239.157 88.548 239.087 88.595 238.993 88.595ZM311.649 134.749C311.321 134.749 310.97 134.702 310.595 134.584C308.626 133.95 306.704 131.6 306.212 129.884C306.118 129.555 306.048 129.203 306.001 128.85C304.103 129.626 302.368 131.341 302.392 133.785C302.392 134.138 302.11 134.42 301.759 134.443C301.407 134.443 301.126 134.161 301.126 133.809C301.103 132.234 301.688 130.777 302.767 129.579C303.61 128.639 304.735 127.91 305.978 127.511C306.095 125.983 306.704 124.479 307.712 123.422C309.353 121.683 311.978 121.33 314.11 121.048L314.274 121.025C314.626 120.978 314.954 121.236 315.001 121.565C315.048 121.918 314.79 122.247 314.462 122.294L314.298 122.317C312.282 122.599 309.985 122.905 308.673 124.291C307.97 125.043 307.501 126.101 307.337 127.205C309.188 126.97 311.485 127.511 313.032 128.545C314.04 129.226 314.696 130.378 314.72 131.529C314.767 132.54 314.321 133.48 313.501 134.138C312.938 134.514 312.329 134.749 311.649 134.749ZM307.267 128.474C307.29 128.827 307.36 129.179 307.454 129.508C307.853 130.871 309.493 132.845 310.993 133.339C311.649 133.55 312.188 133.456 312.681 133.08C313.313 132.587 313.431 131.952 313.407 131.529C313.384 130.777 312.938 130.025 312.282 129.579C310.946 128.662 308.837 128.216 307.267 128.474Z" fill="#BBEABA" fill-opacity="0.6"/>
</svg>
