<svg id="icons" xmlns="http://www.w3.org/2000/svg" viewBox="0 0 48 48"><title>smiley-map-pointer</title><g id="smiley-map-pointer"><path d="M13.36,32C8,33.36,4.5,35.71,4.5,38.38,4.5,42.59,13.23,46,24,46s19.5-3.41,19.5-7.62c0-2.67-3.53-5-8.86-6.38" fill="#60deae"/><path d="M13.64,32C8.44,33.36,5,35.71,5,38.38,5,42.59,13.51,46,24,46s19-3.41,19-7.62c0-2.67-3.44-5-8.64-6.38" fill="none" stroke="#423e5e" stroke-linecap="round" stroke-linejoin="round" stroke-width="2"/><path d="M37,15.81C37,8.18,31.18,2,24,2S11,8.18,11,15.81,24,42,24,42,37,23.69,37,15.81Z" fill="#fff"/><path d="M37,15.81C37,8.18,31.18,2,24,2S11,8.18,11,15.81,24,42,24,42,37,23.69,37,15.81Z" fill="none" stroke="#423e5e" stroke-linecap="round" stroke-linejoin="round" stroke-width="2"/><circle cx="24" cy="15" r="9" fill="#ffd259"/><path d="M28.3,22.91a9,9,0,1,1,3.37-3.19" fill="none" stroke="#423e5e" stroke-linecap="round" stroke-linejoin="round" stroke-width="2"/><line x1="21" y1="13" x2="21" y2="13" fill="none" stroke="#423e5e" stroke-linecap="round" stroke-linejoin="round" stroke-width="3"/><line x1="27" y1="13" x2="27" y2="13" fill="none" stroke="#423e5e" stroke-linecap="round" stroke-linejoin="round" stroke-width="3"/><path d="M28,16a4,4,0,0,1-8,0Z" fill="#423e5e"/></g></svg>